Coordinates
version=1
nRows=16
nColumns=36
inDegrees=yes

Units are S.I. units (second, meters, Newtons, ...)
If the header above contains a line with 'inDegrees', this indicates whether rotational values are in degrees (yes) or radians (no).

endheader
time	pelvis_tilt	pelvis_list	pelvis_rotation	pelvis_tx	pelvis_ty	pelvis_tz	hip_flexion_r	hip_adduction_r	hip_rotation_r	knee_angle_r	knee_angle_r_beta	ankle_angle_r	subtalar_angle_r	mtp_angle_r	hip_flexion_l	hip_adduction_l	hip_rotation_l	knee_angle_l	knee_angle_l_beta	ankle_angle_l	subtalar_angle_l	mtp_angle_l	lumbar_extension	lumbar_bending	lumbar_rotation	arm_flex_r	arm_add_r	arm_rot_r	elbow_flex_r	pro_sup_r	arm_flex_l	arm_add_l	arm_rot_l	elbow_flex_l	pro_sup_l
      0.00000000	     -4.41633779	      1.93619065	     -3.90351308	     -0.29368517	      1.17429007	     -0.10359641	      1.72974043	     -1.73386623	      8.32107078	      2.31587082	      0.04041957	     -0.63653122	    -28.38021150	     -6.72900485	      4.02204114	      0.98466111	      4.44202959	      8.85438264	      0.15453813	      8.74085931	    -13.69263632	     -6.72900485	     -6.91857387	     -2.35076231	     -1.58881468	      0.31023913	     -6.45592931	     13.34994286	     23.55054893	     73.71699380	     -1.44186476	    -10.11245613	     15.57218274	     30.73098970	     69.97862317
      0.01666670	     -6.49338814	      1.08209213	     -4.52422800	     -0.29317532	      1.17496531	     -0.10343685	      4.01438129	     -0.38975667	      8.90664223	      3.57789179	      0.06244599	      2.94313747	    -25.30193330	     -6.76079722	      6.27941470	      0.46026254	      4.96754571	      9.07462953	      0.15838216	      8.54862060	    -13.70086348	     -6.76079722	     -4.21551445	     -1.00826204	     -0.74004621	     -0.26564017	     -5.91740663	     10.76042043	     23.46195231	     73.91281838	     -2.20716485	     -8.63956187	     12.38708741	     30.64111936	     70.12441259
      0.03333330	     -6.48311098	      1.45791761	     -4.63941593	     -0.29379718	      1.17025176	     -0.10269630	      3.61405581	     -0.85366006	      8.39139114	      3.18375019	      0.05556692	      4.27946096	    -24.21887517	     -7.08953784	      6.26536631	      0.86242143	      4.70382552	      9.16478951	      0.15995575	      9.21004313	    -13.44916187	     -7.08953784	     -4.67051769	     -1.64857641	     -0.76437679	     -0.92901686	     -4.37050922	      0.86832303	     25.54459800	     84.31480349	     -3.08993036	     -7.78964014	      5.01191085	     32.26345298	     80.43906731
      0.05000000	     -6.04526272	      1.53493609	     -4.40183925	     -0.29443891	      1.16864540	     -0.10246305	      3.21210036	     -1.01786287	      7.92550565	      3.24399426	      0.05661838	      5.13823760	    -23.82486646	     -7.13320171	      5.32944768	      1.02413837	      4.89381828	      8.31974414	      0.14520693	      9.41913286	    -13.46935437	     -7.13320171	     -5.31579267	     -2.01627730	     -0.46334644	     -1.26441750	     -4.13172536	     -0.20672197	     26.53303395	     83.64001923	     -3.47796458	     -8.07281734	      4.22569550	     33.75219567	     80.02445581
      0.06666670	     -6.00098147	      1.55954152	     -4.27377066	     -0.30123859	      1.17126278	     -0.09965451	      3.36354785	     -0.93113814	      7.57396437	      3.50195969	      0.06112073	      5.28646706	    -24.01132791	     -7.14102124	      5.27677499	      1.04449456	      4.97932239	      7.93764760	      0.13853809	      9.44329258	    -13.10956232	     -7.14102124	     -5.72297738	     -2.28626854	     -0.26741936	     -1.12837960	     -3.96421943	     -0.29195346	     27.10436444	     83.77248060	     -3.30427686	     -8.40711615	      4.20186839	     34.53986738	     80.23115234
      0.08333330	     -5.66365837	      1.60187741	     -4.34173593	     -0.29510759	      1.17277358	     -0.10224702	      3.06185701	     -1.00542003	      7.37335018	      3.48959595	      0.06090494	      5.50277065	    -23.83053562	     -7.15418760	      4.76591463	      1.10167080	      4.62904628	      7.65198176	      0.13355228	      9.73151456	    -12.53855977	     -7.15418760	     -6.18664028	     -2.38799859	      0.23911168	     -1.42782233	     -4.06327776	     -0.56687815	     27.78622121	     83.96810370	     -3.75773867	     -8.27202854	      3.76948196	     35.90969589	     80.60152389
      0.10000000	     -5.58515942	      1.60652916	     -4.46840306	     -0.30179071	      1.17411174	     -0.09930751	      3.20596497	     -0.95994483	      7.23421792	      3.51947288	      0.06142639	      5.71333021	    -23.84004667	     -7.16142534	      4.71143113	      1.07428008	      4.45361999	      7.51434535	      0.13115007	      9.85339653	    -12.27000172	     -7.16142534	     -6.36637068	     -2.56523654	      0.50228072	     -1.24932171	     -3.98051734	     -0.50976000	     27.95578350	     84.11255063	     -3.54724605	     -8.28418641	      3.52477218	     36.45307114	     80.83739104
      0.11666670	     -5.19085015	      1.61122642	     -4.34388575	     -0.29601349	      1.17479821	     -0.10232814	      2.53171722	     -1.03678255	      6.96017204	      2.99138478	      0.05220951	      5.58990644	    -23.61630981	     -7.17181920	      4.24715491	      1.11863730	      4.34275566	      7.49823069	      0.13086881	      9.86107561	    -11.87926634	     -7.17181920	     -6.60827743	     -2.64274495	      0.32232736	     -1.21562963	     -3.96902935	     -0.46165739	     28.03342048	     84.29978465	     -3.49924961	     -8.25616708	      3.33100127	     36.58016324	     81.20191145
      0.13333330	     -4.96811542	      1.69637207	     -4.54664861	     -0.29622892	      1.17743546	     -0.10220573	      2.11216789	     -1.19540542	      6.76467507	      2.56560586	      0.04477827	      5.90771724	    -23.10096268	     -7.23377368	      3.87676009	      1.26188852	      4.16436063	      7.22772382	      0.12614758	     10.05982348	    -11.44815448	     -7.23377368	     -6.69731415	     -2.81872628	      0.38670001	     -1.20212327	     -3.99725007	     -0.14570199	     28.10847355	     82.24735103	     -3.50990948	     -8.13940460	      3.19624139	     36.69719885	     79.48007264
      0.15000000	     -4.78611832	      1.72911437	     -4.72266625	     -0.29005837	      1.17225269	     -0.10487287	      1.64130172	     -1.34048049	      6.80799707	      2.18695252	      0.03816952	      6.15046989	    -22.95688879	     -7.24627679	      3.47415498	      1.36393245	      3.95164266	      7.04355431	      0.12293321	     10.41894906	    -10.92254582	     -7.24627679	     -6.40771841	     -2.80693885	      0.44975770	     -1.43068109	     -4.27598058	      0.64380793	     27.99231017	     82.82393948	     -3.95757914	     -7.89296262	      2.96867180	     36.73630035	     80.51123125
      0.16666670	     -4.56748178	      1.71631829	     -4.87031534	     -0.29015047	      1.17202281	     -0.10499852	      1.18991076	     -1.43527701	      6.48975854	      2.03015900	      0.03543296	      6.56233411	    -22.41044305	     -7.28376784	      3.00208884	      1.46691084	      4.22407841	      6.77392756	      0.11822734	     10.82114126	    -10.59386711	     -7.28376784	     -6.14079821	     -2.73892165	      0.48037420	     -1.63801873	     -4.35466424	      0.64992763	     27.96276636	     81.48454024	     -4.18427826	     -7.54317017	      2.76111727	     36.39401026	     79.46797701
      0.18333330	     -4.51657363	      1.72208478	     -5.16810962	     -0.29054321	      1.17454542	     -0.10464326	      0.95775931	     -1.47989647	      6.79042450	      1.87981455	      0.03280895	      6.61037714	    -22.72409414	     -7.38614100	      2.67801552	      1.51072627	      4.22488488	      6.40124789	      0.11172285	     11.00322373	    -10.32728108	     -7.38614100	     -5.82961294	     -2.71628081	      0.35923247	     -1.60799672	     -4.49139373	      0.27542102	     27.80877070	     86.06277341	     -4.44510118	     -7.27828666	      1.29218230	     36.16729394	     85.57145813
      0.20000000	     -4.51174950	      1.70377377	     -5.32241738	     -0.29051423	      1.17142611	     -0.10456959	      0.81486074	     -1.50102696	      6.94818487	      1.81942645	      0.03175498	      6.42247094	    -23.05102411	     -7.41822698	      2.43732286	      1.52263716	      4.28888491	      6.32159952	      0.11033273	     10.99147909	    -10.49558601	     -7.41822698	     -5.47399558	     -2.61897273	      0.34609031	     -1.56107936	     -4.67841853	      0.89928162	     27.89520887	     83.31198006	     -4.33393540	     -7.37036806	      2.37297972	     35.51712773	     82.92524637
      0.21666670	     -4.47133013	      1.64635859	     -5.60805279	     -0.29086684	      1.17533525	     -0.10435470	      0.59829455	     -1.45226415	      7.07039739	      1.69707839	      0.02961961	      6.33551121	    -22.86956294	     -7.41897537	      2.17711366	      1.48333555	      4.16515334	      6.19172975	      0.10806607	     10.94442578	    -10.53329972	     -7.41897537	     -5.23012523	     -2.49145610	      0.44899966	     -1.45320608	     -4.76130101	      0.95668928	     27.97162122	     83.41296513	     -4.46127765	     -7.36413678	      2.45773983	     35.34730810	     83.03122502
      0.23333330	     -4.41709147	      1.62565284	     -5.73977862	     -0.29083343	      1.17157729	     -0.10424669	      0.49219026	     -1.40636609	      7.09691904	      1.75875154	      0.03069601	      6.28804525	    -22.85887110	     -7.42997593	      1.94743965	      1.49374823	      4.30809911	      6.08513643	      0.10620567	     10.78742530	    -10.96448233	     -7.42997593	     -5.14541763	     -2.40531482	      0.59956746	     -1.34645570	     -4.97859185	      1.53398461	     28.29964556	     83.52997459	     -4.21131337	     -7.56796103	      3.37385646	     34.80454465	     83.25207657
      0.25000000	     -4.48652806	      1.61080505	     -5.86859865	     -0.29099979	      1.17421534	     -0.10402882	      0.57787494	     -1.35922368	      7.24200661	      1.82491720	      0.03185081	      6.02855543	    -23.03886365	     -7.46119851	      1.87612455	      1.47353557	      4.26147486	      5.96187315	      0.10405432	     10.74526565	    -10.80654676	     -7.46119851	     -4.93892281	     -2.32136244	      0.72410535	     -1.38744565	     -5.00145948	      0.86325974	     28.44807343	     85.80243198	     -3.98810434	     -7.71278753	      3.94086482	     34.25674478	     85.66007449
